<svg id="Registration" xmlns="http://www.w3.org/2000/svg" viewBox="0 0 935.95 791.96"><defs><style>.cls-1{fill:#eaed07;}.cls-2{fill:#28613a;}.cls-10,.cls-3{fill:#0b0b09;}.cls-10,.cls-3,.cls-4,.cls-5{stroke:#fff;stroke-miterlimit:10;}.cls-3{stroke-width:0.75px;}.cls-5{fill:#0b0b0b;}.cls-6{fill:#3b643a;}.cls-7{fill:#e1e438;}.cls-8{fill:#f2f2f2;}.cls-9{fill:#fcfcfc;}</style></defs><path class="cls-1" d="M201.87,637.67a6,6,0,0,1-4.5-1.83,6.26,6.26,0,0,1-1.78-4.55V566.66a6.26,6.26,0,0,1,1.78-4.55,6.44,6.44,0,0,1,9,0,6.26,6.26,0,0,1,1.78,4.55v64.63a6.26,6.26,0,0,1-1.78,4.55A6,6,0,0,1,201.87,637.67Zm33.25-55.95a5.46,5.46,0,0,1,4.18,2,5.87,5.87,0,0,1,1.78,3.87,6.24,6.24,0,0,1-2.51,4.7l-31.47,29-.53-14.43,24-23.11A6.33,6.33,0,0,1,235.12,581.72Zm1.57,55.84a5.93,5.93,0,0,1-4.6-2.09L212.74,615l9.52-8.79,18.82,20.5a6.63,6.63,0,0,1,2,4.7,5.47,5.47,0,0,1-2.14,4.45A6.8,6.8,0,0,1,236.69,637.56Z"/><path class="cls-1" d="M259.49,574.92c-2.37,0-4.05-.38-5-1.15S253,571.65,253,569.7v-2c0-2,.54-3.4,1.62-4.13a9,9,0,0,1,5-1.1q3.66,0,5.12,1.15t1.47,4.08v2c0,2-.52,3.4-1.57,4.13S261.86,574.92,259.49,574.92Zm6.37,56.37a6.29,6.29,0,0,1-1.77,4.55,6.45,6.45,0,0,1-9,0,6.29,6.29,0,0,1-1.77-4.55V588.1a6.29,6.29,0,0,1,1.77-4.55,6.45,6.45,0,0,1,9,0,6.29,6.29,0,0,1,1.77,4.55Z"/><path class="cls-1" d="M324.53,560.28a6.14,6.14,0,0,1,4.5,1.78,6.25,6.25,0,0,1,1.77,4.6v64.63a6.29,6.29,0,0,1-1.77,4.55,6.45,6.45,0,0,1-9,0,6.3,6.3,0,0,1-1.78-4.55v-5.12l2.31.94a5.88,5.88,0,0,1-1.47,3.29,20.24,20.24,0,0,1-4,3.82,24.73,24.73,0,0,1-5.91,3.19,20.39,20.39,0,0,1-7.37,1.3A23.91,23.91,0,0,1,288.76,635a26,26,0,0,1-9.25-10.25,35,35,0,0,1,0-30.11,26.34,26.34,0,0,1,9.15-10.25,23,23,0,0,1,12.76-3.71,24.06,24.06,0,0,1,8.26,1.36,24.4,24.4,0,0,1,6.54,3.45,19.75,19.75,0,0,1,4.28,4.23,6.75,6.75,0,0,1,1.52,3.61l-3.77,1.36v-28a6.3,6.3,0,0,1,1.78-4.55A6,6,0,0,1,324.53,560.28Zm-21.12,66.93a14.14,14.14,0,0,0,8-2.3,15.49,15.49,0,0,0,5.38-6.27,20.07,20.07,0,0,0,1.94-8.89,20.3,20.3,0,0,0-1.94-9,15.55,15.55,0,0,0-5.38-6.27,14.21,14.21,0,0,0-8-2.3,14,14,0,0,0-8,2.3,15.57,15.57,0,0,0-5.39,6.27,20.3,20.3,0,0,0-1.93,9,20.06,20.06,0,0,0,1.93,8.89,15.51,15.51,0,0,0,5.39,6.27A14,14,0,0,0,303.41,627.21Z"/><path class="cls-1" d="M341.16,629a5.84,5.84,0,0,1-1-3.77q.1-2.29,2.72-4a5.76,5.76,0,0,1,3.56-.89,6,6,0,0,1,3.66,1.94,24.55,24.55,0,0,0,6.38,4.7,18.55,18.55,0,0,0,8.36,1.68,27.18,27.18,0,0,0,3.46-.48,6.59,6.59,0,0,0,3.29-1.67,5.23,5.23,0,0,0,1.41-4,4.57,4.57,0,0,0-1.57-3.66,13.1,13.1,0,0,0-4.13-2.31q-2.57-.93-5.7-1.77T355,612.68a27.92,27.92,0,0,1-6.22-3,14.24,14.24,0,0,1-4.6-4.87,14.83,14.83,0,0,1-1.78-7.63,13.79,13.79,0,0,1,2.93-8.89,19.18,19.18,0,0,1,7.58-5.65,24.71,24.71,0,0,1,9.78-2,31.83,31.83,0,0,1,6.8.78,26.58,26.58,0,0,1,6.79,2.51,16.8,16.8,0,0,1,5.44,4.55,7.38,7.38,0,0,1,1.36,3.76,4.49,4.49,0,0,1-2,4,5.08,5.08,0,0,1-3.66,1.1,5.56,5.56,0,0,1-3.45-1.42,12.37,12.37,0,0,0-4.76-3.66,16.42,16.42,0,0,0-6.85-1.36,17.62,17.62,0,0,0-3.39.37,6.71,6.71,0,0,0-3.19,1.57,5.7,5.7,0,0,0,.21,7.63,11.75,11.75,0,0,0,4.23,2.3c1.78.6,3.68,1.17,5.7,1.73s4.22,1.22,6.38,2a24.77,24.77,0,0,1,6,3,14.27,14.27,0,0,1,4.39,4.86,15.32,15.32,0,0,1,1.68,7.58,13.75,13.75,0,0,1-3.14,9.1,19.85,19.85,0,0,1-7.85,5.7,25,25,0,0,1-9.62,1.93,37.41,37.41,0,0,1-12.34-2.14A21.29,21.29,0,0,1,341.16,629Z"/><path class="cls-2" d="M423.77,580.68a23.78,23.78,0,0,1,13.12,3.71,26.35,26.35,0,0,1,9.21,10.19,35.26,35.26,0,0,1,0,30.17A26.54,26.54,0,0,1,437,635a22.92,22.92,0,0,1-12.81,3.71,22.29,22.29,0,0,1-7.85-1.36,24.78,24.78,0,0,1-6.43-3.45,19.52,19.52,0,0,1-4.28-4.23,6.67,6.67,0,0,1-1.52-3.61l3.24-1.36v27.5a6.24,6.24,0,0,1-1.78,4.55,6,6,0,0,1-4.49,1.83,6.1,6.1,0,0,1-4.5-1.77,6.22,6.22,0,0,1-1.78-4.61V588.1a6.26,6.26,0,0,1,1.78-4.55,6.44,6.44,0,0,1,9,0,6.26,6.26,0,0,1,1.78,4.55v5.12l-1.78-.94A5.88,5.88,0,0,1,407,589a21,21,0,0,1,4-3.87,22.75,22.75,0,0,1,5.8-3.19A19.34,19.34,0,0,1,423.77,580.68Zm-1.57,11.5a14.19,14.19,0,0,0-8.05,2.3,15.63,15.63,0,0,0-5.39,6.22,20,20,0,0,0-1.93,8.94,20.34,20.34,0,0,0,1.93,8.94,15.43,15.43,0,0,0,5.39,6.33,14.11,14.11,0,0,0,8.05,2.3,13.88,13.88,0,0,0,8-2.3,15.52,15.52,0,0,0,5.33-6.33,20.35,20.35,0,0,0,1.94-8.94,20,20,0,0,0-1.94-8.94,15.72,15.72,0,0,0-5.33-6.22A14,14,0,0,0,422.2,592.18Z"/><path class="cls-2" d="M486.83,638.71A30.68,30.68,0,0,1,471.4,635a25.63,25.63,0,0,1-10-10.09,29.52,29.52,0,0,1-3.5-14.43q0-9.4,3.82-16.05a27,27,0,0,1,10-10.2,25.79,25.79,0,0,1,13.07-3.55,23.9,23.9,0,0,1,10.1,2.19,27.75,27.75,0,0,1,8.41,6,29.43,29.43,0,0,1,5.81,8.84,26.87,26.87,0,0,1,2.14,10.67,5.4,5.4,0,0,1-2,4.08,6.7,6.7,0,0,1-4.4,1.57H464.87l-3.14-10.46h38.38l-2.3,2.09v-2.82a9.52,9.52,0,0,0-2.15-5.44,13.89,13.89,0,0,0-4.81-3.82,13.74,13.74,0,0,0-6.12-1.41,19.7,19.7,0,0,0-5.85.84,11.18,11.18,0,0,0-4.71,2.82,13.76,13.76,0,0,0-3.14,5.33,26.65,26.65,0,0,0-1.15,8.47,18.25,18.25,0,0,0,2.36,9.57,16.07,16.07,0,0,0,14,8,24.24,24.24,0,0,0,6.17-.63,13.71,13.71,0,0,0,3.71-1.51c.94-.59,1.79-1.1,2.56-1.52a8,8,0,0,1,3.56-.94,5.28,5.28,0,0,1,5.33,5.23q0,2.82-2.93,5.12a24,24,0,0,1-7.63,4A30.43,30.43,0,0,1,486.83,638.71Z"/><path class="cls-2" d="M568,560.28a6.11,6.11,0,0,1,4.49,1.78,6.22,6.22,0,0,1,1.78,4.6v64.63a6.26,6.26,0,0,1-1.78,4.55,6.44,6.44,0,0,1-9,0,6.26,6.26,0,0,1-1.78-4.55v-5.12l2.3.94a5.93,5.93,0,0,1-1.46,3.29,20,20,0,0,1-4,3.82,24.35,24.35,0,0,1-5.91,3.19,20.36,20.36,0,0,1-7.37,1.3A23.85,23.85,0,0,1,532.21,635,26,26,0,0,1,523,624.75a35,35,0,0,1,0-30.11,26.27,26.27,0,0,1,9.15-10.25,23,23,0,0,1,12.75-3.71,24.57,24.57,0,0,1,14.8,4.81,19.59,19.59,0,0,1,4.29,4.23,6.72,6.72,0,0,1,1.51,3.61l-3.76,1.36v-28a6.26,6.26,0,0,1,1.78-4.55A6,6,0,0,1,568,560.28Zm-21.13,66.93a14.11,14.11,0,0,0,8-2.3,15.51,15.51,0,0,0,5.39-6.27,20.06,20.06,0,0,0,1.93-8.89,20.3,20.3,0,0,0-1.93-9,15.57,15.57,0,0,0-5.39-6.27,14.19,14.19,0,0,0-8-2.3,14,14,0,0,0-8,2.3,15.55,15.55,0,0,0-5.38,6.27,20.3,20.3,0,0,0-1.94,9,20.07,20.07,0,0,0,1.94,8.89,15.49,15.49,0,0,0,5.38,6.27A14,14,0,0,0,546.85,627.21Z"/><path class="cls-2" d="M593.28,574.92q-3.56,0-5-1.15c-1-.76-1.46-2.12-1.46-4.07v-2c0-2,.53-3.4,1.62-4.13a9,9,0,0,1,5-1.1q3.66,0,5.13,1.15c1,.77,1.46,2.13,1.46,4.08v2c0,2-.52,3.4-1.57,4.13S595.65,574.92,593.28,574.92Zm6.38,56.37a6.26,6.26,0,0,1-1.78,4.55,6.44,6.44,0,0,1-9,0,6.26,6.26,0,0,1-1.78-4.55V588.1a6.26,6.26,0,0,1,1.78-4.55,6.44,6.44,0,0,1,9,0,6.26,6.26,0,0,1,1.78,4.55Z"/><path class="cls-2" d="M658.32,580.68a6.11,6.11,0,0,1,4.5,1.77,6.22,6.22,0,0,1,1.78,4.61v44.23a6.26,6.26,0,0,1-1.78,4.55,6.44,6.44,0,0,1-9,0,6.26,6.26,0,0,1-1.78-4.55v-5.12l2.3.94a5.93,5.93,0,0,1-1.46,3.29,20,20,0,0,1-4,3.82,24.35,24.35,0,0,1-5.91,3.19,20.36,20.36,0,0,1-7.37,1.3A23.85,23.85,0,0,1,622.56,635a26,26,0,0,1-9.25-10.25,35,35,0,0,1,0-30.11,26.27,26.27,0,0,1,9.15-10.25,23,23,0,0,1,12.75-3.71,24.06,24.06,0,0,1,8.26,1.36,24.4,24.4,0,0,1,6.54,3.45,19.59,19.59,0,0,1,4.29,4.23,6.72,6.72,0,0,1,1.51,3.61l-3.76,1.36v-7.63a6.24,6.24,0,0,1,1.78-4.55A6,6,0,0,1,658.32,580.68ZM637.2,627.21a14.11,14.11,0,0,0,8-2.3,15.51,15.51,0,0,0,5.39-6.27,20.06,20.06,0,0,0,1.93-8.89,20.3,20.3,0,0,0-1.93-9,15.57,15.57,0,0,0-5.39-6.27,14.19,14.19,0,0,0-8-2.3,14,14,0,0,0-8,2.3,15.55,15.55,0,0,0-5.38,6.27,20.3,20.3,0,0,0-1.94,9,20.07,20.07,0,0,0,1.94,8.89,15.49,15.49,0,0,0,5.38,6.27A14,14,0,0,0,637.2,627.21Z"/><path class="cls-3" d="M681.19,638a3.36,3.36,0,0,1-3.73-3.73v-1.06a3.36,3.36,0,0,1,3.73-3.73H682a3.36,3.36,0,0,1,3.73,3.73v1.06A3.36,3.36,0,0,1,682,638Z"/><path class="cls-3" d="M696.62,600.76a4.9,4.9,0,0,1-3-.68,2.91,2.91,0,0,1-.88-2.43v-1.18a2.79,2.79,0,0,1,1-2.46,5.37,5.37,0,0,1,2.95-.65,5.11,5.11,0,0,1,3.05.68,2.94,2.94,0,0,1,.87,2.43v1.18a2.82,2.82,0,0,1-.93,2.46A5.42,5.42,0,0,1,696.62,600.76Zm3.8,33.54a3.73,3.73,0,0,1-1.06,2.7,3.83,3.83,0,0,1-5.35,0,3.69,3.69,0,0,1-1.06-2.7V608.6a3.69,3.69,0,0,1,1.06-2.7,3.83,3.83,0,0,1,5.35,0,3.73,3.73,0,0,1,1.06,2.7Z"/><path class="cls-3" d="M740.36,621.48a17.53,17.53,0,0,1-2.27,9,16.37,16.37,0,0,1-6.1,6.07,17.95,17.95,0,0,1-17.11,0,16.27,16.27,0,0,1-6.09-6.07,18.86,18.86,0,0,1,0-18,16.58,16.58,0,0,1,6.09-6.1,17,17,0,0,1,23.21,6.1A17.53,17.53,0,0,1,740.36,621.48Zm-7.47,0a11.35,11.35,0,0,0-1.27-5.51,9.6,9.6,0,0,0-3.42-3.64,9.36,9.36,0,0,0-9.52,0,9.6,9.6,0,0,0-3.42,3.64,11.36,11.36,0,0,0-1.28,5.51,11.13,11.13,0,0,0,1.28,5.44,9.45,9.45,0,0,0,3.42,3.64,9.3,9.3,0,0,0,9.52,0,9.45,9.45,0,0,0,3.42-3.64A11.13,11.13,0,0,0,732.89,621.48Z"/><path class="cls-4" d="M430.7,388.49c4.57,2.43,9.46,2.15,14.07-.08,10.24-5,18.92-13.63,26.31-22.21a22,22,0,0,1,1.12-10.4c-4.85-2-9.83-3.52-14.62-5.65-.39.34-.77.67-1.18,1-3,2.34-6.23,4.53-9.45,6.6-1.12.73-2.27,1.42-3.39,2.13l-1,.08a97.76,97.76,0,0,1-8.43-19.73c-2.23-7.34-4.06-14.77-7.21-21.79-2.49-5.54-5.72-11.07-10.54-14.9,1.33-.31,2.66-.68,4-1.13,10-3.41,20-9.15,25.77-18.29,6.12-9.75,9.23-22.14,10.05-33.53a80.2,80.2,0,0,0-.48-18.32c-.18-1.15-.41-2.27-.66-3.39a5.7,5.7,0,0,0,3.83-3.75c.93-3.27-.38-6.94-1.3-10.1a71.42,71.42,0,0,0-5.24-13.36,59.82,59.82,0,0,0-6.86-16,63.28,63.28,0,0,0-19-18.81c-17.15-11.13-39.18-16-58.76-8.63a83.67,83.67,0,0,0-32.56,21.87A66.75,66.75,0,0,0,319,214.16a102.85,102.85,0,0,0,1.7,40.26c3.2,13.1,9.49,24.45,16.69,35.69-3.91,1.17-6.89,4.89-9.33,7.95A36.3,36.3,0,0,0,322,309.53c-3.07,9.62-5.25,19.51-8.23,29.17a114.82,114.82,0,0,1-5.25,14.78c-1.93,4.13-4.25,8-6.51,12h0c-.1.24-.23.47-.35.7a0,0,0,0,0,0,0c.12.29.25.57.37.86s.47.7.72,1.07a18.56,18.56,0,0,0,3.31,3.82c2.16,1.83,5.43,4.22,8.46,4.75l-.63,1.92a10.88,10.88,0,0,0,1.91,2.21,12,12,0,0,0,2.61,1.06c.72.2,1.44.35,2.16.48a17.73,17.73,0,0,0,7.77,11.19c-.81,2.45-1.57,4.91-2.2,7.41-.73,2.93-2.18,6.88-2.33,10.32l.45.87a10.56,10.56,0,0,0-3.32-1.8c-3.81-1.21-8.46,1.89-11.37,3.92-2.2,1.54-4.27,3.37-6.62,4.69a18.17,18.17,0,0,1-8.22,2.07c-5.12.32-10.24,1.11-14.91,3.36-5.21,2.52-14.92,9.59-10.26,16.42,3,4.38,8.35,4,13,2.75a.17.17,0,0,0,.1,0c3-.87,6.23-.69,9.33-.74,3.27,0,6.52,0,9.77.2,2.35.18,5.76.93,8.58.63a5.79,5.79,0,0,0,1.29,3.1c3.27,3.65,8.66,2.7,12.6,5a61,61,0,0,0,17,12.66c10.44,5.39,21.28,11.17,32.77,13.92,11.75,2.8,25.37,3.19,37-.23a87.51,87.51,0,0,0,17.06-6.7l3.52-1.93.07,0c4.68-.52,9.34-1.19,14-1.67,3.67-.38,7.16-1.22,10-3.7,6.08-5.29,7.19-12.45,4.72-19.89-4.39-13.19-16.39-22.6-28.16-29.44a.18.18,0,0,0,0-.19,27.24,27.24,0,0,0-2.47-3.24c-2.3-9.78-4.43-19.45-7.29-28.93.16-.76.3-1.54.45-2.31A18.65,18.65,0,0,0,430.7,388.49Z"/><path class="cls-5" d="M369.21,375.57a6.65,6.65,0,0,0,2.08-.75c6.23,3.93,3.29,10.19,3.93,15.54a149.26,149.26,0,0,1-52.67,30.39c-6.11,2-11,4.24-10.81,12,.08,3.34-.57,7.43-2.5,9.95-9.87,12.91-2.82,22.68,5.38,32.23,9.57,11.15,16.06,25.62,33.6,28,3.86.53,8.57,6.88,2.75,13.43-4.44,5-13.45,6.89-18.63,4.59-17.45-7.75-22.86-26.4-35.78-38.12-2.11-1.93-2.54-7-6.21-5.54-3.19,1.26-3.61,5.49-3.18,9.1.09.77.06,1.55.09,2.32.67,18.37-12.84,29.85-30.81,26.48-8.26-1.55-15.13-4.79-24.75,2.19-9.42,6.83-23-.35-34.34-4.24-8.59-3-8.61-3.11-10.5,6.29-.91,4.52-5.11,5.26-7.9,5.21-4.07-.08-9-1.82-8.85-7.28.35-10,4-18.85,11.94-25.31,3.18-2.59,6.43-1.23,9.32,1.37,7.38,6.66,17,8.48,26,11.28,4.42,1.38,7.55,1.53,5.67-6.11-4.81-19.5-5.88-38.57,10.87-54.63,12.47-12,23.93-25,38.43-35.47-32.83-8-44.92-24-45.25-57.53-.56-57.64,37.54-83.38,80.27-85.94,9.63-.58,18.81,1.35,26.1,7.49,18.89,15.93,36.36,32.85,29.92,61.41-1.12,4.94-.11,10,2,14.7,3.62,8.08,3.86,16.42,1.67,24.91-.16.93-.33,1.87-.49,2.8Z"/><path class="cls-6" d="M375.22,390.36c-.64-5.35,2.3-11.61-3.93-15.54,1.59-5.2,4.63-8.84,10.31-9.65,12.19-.4,23.73-4.07,35.42-7,26.18-1.41,51.5-8.19,77.14-12.83,30-5.43,29.75-6.05,34.47,24.6,1,6.76,1.44,13.76,4.61,20.07.44,8.17.64,16.39,5.72,23.43-3.64,5.44.3,10.91-.05,16.36-5.16,1.44-10.35,1-15.54.2-3.66-19-8.17-37.8-10.68-56.91-1.61-12.24-7.08-13.64-17.51-11.55-31.57,6.32-63.26,12.06-94.93,17.86-5.15.94-9.31,2.73-8.22,8.61,6.63,35.52,13.7,71,20.15,106.51,1.09,6,3.58,5.19,7.84,4.39,24.53-4.58,49.21-8.42,73.6-13.6,7.23-1.54,16.18,0,21.41-7.72,5.4-.67,7.22-6.6,13.73-9-3.91,6-5.6,12.5-1,16,4,3.07,4.68-4.69,8.45-6.16,3.43,1.84.22,7.77,5.22,8.91,4.6-1.75,3.79-6.89,5.85-10.33,5,9.08,3.5,14.08-7.82,16.05q-63.22,11-126.24,23.2c-9.73,1.88-13.59.57-15.35-10.72-5.71-36.6-13.16-72.94-20-109.37C377.45,394.1,378.1,391.4,375.22,390.36Z"/><path class="cls-4" d="M417,358.18c-11.69,2.92-23.23,6.59-35.42,7,.88-4.88,1.23-10,2.84-14.59,1-2.86-5.09-7.23,1.37-8.25,5.57-.88,4.39,5.21,6.81,8.27,2.62-3.71,5.13-7.41,7.82-11,1.15-1.52,3.08-3.19,4.62-1.2.81,1.06-.17,3.5-.34,5.31-.31.81-.62,1.61-.92,2.42l2.82-.19c3.13-.52,5.91-5.12,9.14-1.89,3.06,3.06-1.95,3.82-2.72,5.88-1.37,3.65,1.35,1.81,2.8,2.07C418.86,352.56,419.17,354.49,417,358.18Z"/><path class="cls-7" d="M515,477.6c-5.23,7.71-14.18,6.18-21.41,7.72-24.39,5.18-49.07,9-73.6,13.6-4.26.8-6.75,1.61-7.84-4.39C405.73,459,398.66,423.54,392,388c-1.09-5.88,3.07-7.67,8.22-8.61,31.67-5.8,63.36-11.54,94.93-17.86,10.43-2.09,15.9-.69,17.51,11.55,2.51,19.11,7,37.95,10.68,56.91-4.91,1.39-8.44,5.11-3.89,8.76,10.37,8.34,1.89,9.64-3.66,12.57-2.66,1.41-5.19,3.09-7.78,4.65-11.78-5.4-19-16.47-29.51-23.6-10.32-7-10.36-11.63-3.09-21.95,5.28-7.51,10.65-15,15.44-22.81,2.47-4,1.64-7.88-2.94-10.81-4-2.55-6.94-2.7-9.81,1.3-2,2.74-4.46,4.9-6.37,7.89-8.87,13.87-18.54,27.23-29.25,42.69-2.5-12-5.07-21.55-6.36-31.31-1-7.71-5.19-9.6-11.83-9.08-6.83.54-7.87,5.38-7.42,10.77,2.22,26.45,11.34,51.54,15.41,77.64.85,5.43,5.75,7.52,10.67,6.49,4.32-.91,9.13-2.61,8.67-8.93-.32-4.45,1-8.7-2.39-13.13-5.87-7.61-.54-14,4.81-19s7.92,2.45,10.75,4.62c8.48,6.49,15.94,14.29,24,21.38,8.34,7.34,14.26,5.68,18.81-5,5-1.32,9.27-5.41,15.88-4.33C522.18,466,510.83,468.63,515,477.6Z"/><path class="cls-6" d="M507.61,463.16c-4.55,10.69-10.47,12.35-18.81,5-8-7.09-15.5-14.89-24-21.38-2.83-2.17-5.27-9.71-10.75-4.62s-10.68,11.37-4.81,19c3.42,4.43,2.07,8.68,2.39,13.13.46,6.32-4.35,8-8.67,8.93-4.92,1-9.82-1.06-10.67-6.49-4.07-26.1-13.19-51.19-15.41-77.64-.45-5.39.59-10.23,7.42-10.77,6.64-.52,10.81,1.37,11.83,9.08,1.29,9.76,3.86,19.34,6.36,31.31,10.71-15.46,20.38-28.82,29.25-42.69,1.91-3,4.4-5.15,6.37-7.89,2.87-4,5.82-3.85,9.81-1.3,4.58,2.93,5.41,6.78,2.94,10.81-4.79,7.82-10.16,15.3-15.44,22.81-7.27,10.32-7.23,14.95,3.09,21.95,10.5,7.13,17.73,18.2,29.51,23.6C507.9,458.38,507.75,460.77,507.61,463.16Z"/><path class="cls-8" d="M640.29,467.79c2.77,0,14.85,16.92,12.9,19.44-5.78,7.47-15.53,5.9-23.66,7.8-6.46,1.5-6.32-3.46-6.18-8.08C623.79,472.57,628,467.68,640.29,467.79Z"/><path class="cls-9" d="M369.21,375.57l-2.62.82c.16-.93.33-1.87.49-2.8Z"/><path class="cls-10" d="M756.4,489.77a6.25,6.25,0,0,0-4.21-1.47c-12.07,1.84-23.7-2.86-35.72-2.16-7,.4-14.87,2.24-17.76-7.8-.73-2.52-4.15-4.15-6.82-3.4-7.81,2.19-8.26-3.13-10.22-8.34-4.57-12.19,1-24.68-1.41-36.5-4.63-22.52-9.72-45-19.26-66.23-4.34-9.67-9-19.31-12-29.57a38.22,38.22,0,0,0,4.66-1.76c6.41,9.08,17.63,15.12,30.44,15.12,19.93,0,36.1-14.6,36.1-32.61a30.23,30.23,0,0,0-5.66-17.48c15.33-3.76,26.62-16.39,26.62-31.43a31.06,31.06,0,0,0-10.86-23.29,31.07,31.07,0,0,0,10.86-23.29c0-18-16.16-32.61-36.1-32.61a40.08,40.08,0,0,0-8.2.87c0-.29,0-.58,0-.87,0-18-16.17-32.61-36.1-32.61-1.19,0-2.36.06-3.52.16-5.15-12.33-18.3-21.12-33.75-21.12a37.68,37.68,0,0,0-27.79,11.79,39.1,39.1,0,0,0-40.92,2.08,38.41,38.41,0,0,0-22.13-6.88c-19.94,0-36.1,14.59-36.1,32.6,0,.55.06,1.08.09,1.61a31.19,31.19,0,0,0-11.73,24,29.6,29.6,0,0,0,1.12,8,30.23,30.23,0,0,0-5.78,17.66c0,15.78,12.4,28.94,28.88,32,7.48,6.38,8.61,16.48,9.73,26.39,2.92,25.91,15.21,37.8,41.25,38.77,11.1.41,21.62-3.21,33.36-3.51-17.69,11.58-25.91,29.19-32.71,47.77C556,378.67,547.55,387.67,533.24,390c.44,8.17.64,16.39,5.71,23.43,16.57-3,30.56-9.51,35.82-27.57,1.56,1.17,2.29,1.43,2.49,1.91,7.15,17.27,7.1,17.22-8,28.78-5.48,4.2-11.08,8.37-15.95,13.22-5.17,5.17-9.6,5.23-14.41,0-5.16,1.44-10.35,1-15.53.2-4.92,1.39-8.45,5.11-3.9,8.76,10.37,8.34,1.89,9.64-3.66,12.57-2.66,1.41-5.19,3.09-7.77,4.65q-.23,3.58-.44,7.17c5-1.32,9.27-5.41,15.88-4.33-1.31,7.12-12.66,9.8-8.46,18.77,5.4-.67,7.22-6.6,13.73-9-3.91,6-5.6,12.5-1,16,4,3.07,4.68-4.69,8.45-6.16,3.43,1.84.22,7.77,5.22,8.91,4.6-1.75,3.79-6.89,5.85-10.34-.46-11.67,10.75-16.93,15.37-26s18-13.93,27.1-20.26c4.74,15.5,4,30.22,1.76,45.26-1.32,9-1.59,18.48,1.1,27.64,3.89,13.29,9.73,17.17,23,13.95,15.32-3.7,30.52-7.87,45.78-11.84,14-3.66,24.85,2.33,28.07,14.17,1.08,4-2.11,10.95,4,11.76,4.83.65,5.65-6.55,9.2-9.44,1.35-1.1,2.18-3.29,2.52-5.11,1.15-6.39,5.09-7.77,11.12-8.41,29.67-3.11,29.68-3.33,35,26.24.53,3,.08,6.71,3.91,7.34,2.78.45,4.88-1.87,6.6-4.09C769.24,528.49,765.91,497.47,756.4,489.77Zm-103.21-2.54c-5.78,7.47-15.53,5.9-23.66,7.8-6.46,1.5-6.32-3.46-6.18-8.08.44-14.38,4.67-19.27,16.94-19.16C643.06,467.81,655.14,484.71,653.19,487.23Z"/></svg>